<svg xmlns="http://www.w3.org/2000/svg" viewBox="0 0 24 24" fill="#10b981">
  <path d="M16 2.012c-.553 0-1 .447-1 1s.447 1 1 1c2.42 0 4.549 1.488 5.488 3.754a1 1 0 1 0 1.848-.76C22.213 4.29 19.336 2.012 16 2.012zm-8 .01c-3.336 0-6.213 2.278-7.336 5.006a1 1 0 1 0 1.848.76C3.451 5.51 5.58 4.022 8 4.022c.553 0 1-.447 1-1s-.447-1-1-1zm8 16a4 4 0 1 0 0-8 4 4 0 0 0 0 8zm-8 0a4 4 0 1 0 0-8 4 4 0 0 0 0 8zm8 2.012c3.336 0 6.213-2.278 7.336-5.006a1 1 0 1 0-1.848-.76c-.939 2.266-3.068 3.754-5.488 3.754c-.553 0-1 .447-1 1s.447 1 1 1zm-8 0c.553 0 1-.447 1-1s-.447-1-1-1c-2.42 0-4.549-1.488-5.488-3.754a1 1 0 1 0-1.848.76c1.123 2.728 4 5.006 7.336 5.006z"/>
</svg>
